<?xml version="1.0" encoding="UTF-8" standalone="no"?>
<svg
   xmlns:dc="http://purl.org/dc/elements/1.1/"
   xmlns:cc="http://creativecommons.org/ns#"
   xmlns:rdf="http://www.w3.org/1999/02/22-rdf-syntax-ns#"
   xmlns:svg="http://www.w3.org/2000/svg"
   xmlns="http://www.w3.org/2000/svg"
   xmlns:xlink="http://www.w3.org/1999/xlink"
   xmlns:sodipodi="http://sodipodi.sourceforge.net/DTD/sodipodi-0.dtd"
   xmlns:inkscape="http://www.inkscape.org/namespaces/inkscape"
   viewBox="0 0 360.75101 360.75101"
   id="svg3350"
   version="1.1"
   inkscape:version="0.91 r13725"
   sodipodi:docname="PyBEL-square.svg"
   width="360.75101"
   height="360.75101"
   inkscape:export-filename="PyBEL-square-100.png"
   inkscape:export-xdpi="24.950001"
   inkscape:export-ydpi="24.950001">
  <metadata
     id="metadata3360">
    <rdf:RDF>
      <cc:Work
         rdf:about="">
        <dc:format>image/svg+xml</dc:format>
        <dc:type
           rdf:resource="http://purl.org/dc/dcmitype/StillImage" />
        <dc:title></dc:title>
        <cc:license
           rdf:resource="http://creativecommons.org/licenses/by/3.0/" />
      </cc:Work>
      <cc:License
         rdf:about="http://creativecommons.org/licenses/by/3.0/">
        <cc:permits
           rdf:resource="http://creativecommons.org/ns#Reproduction" />
        <cc:permits
           rdf:resource="http://creativecommons.org/ns#Distribution" />
        <cc:requires
           rdf:resource="http://creativecommons.org/ns#Notice" />
        <cc:requires
           rdf:resource="http://creativecommons.org/ns#Attribution" />
        <cc:permits
           rdf:resource="http://creativecommons.org/ns#DerivativeWorks" />
      </cc:License>
    </rdf:RDF>
  </metadata>
  <defs
     id="defs3358">
    <clipPath
       clipPathUnits="userSpaceOnUse"
       id="clipPath3412">
      <use
         x="0"
         y="0"
         xlink:href="#path3354"
         id="use3414"
         width="100%"
         height="100%"
         transform="translate(-33.796504,0)" />
    </clipPath>
    <clipPath
       clipPathUnits="userSpaceOnUse"
       id="clipPath3500">
      <use
         x="0"
         y="0"
         xlink:href="#path3354"
         id="use3502"
         width="100%"
         height="100%" />
    </clipPath>
    <clipPath
       clipPathUnits="userSpaceOnUse"
       id="clipPath4309">
      <use
         x="0"
         y="0"
         xlink:href="#path3354"
         id="use4311"
         width="100%"
         height="100%" />
    </clipPath>
    <mask
       maskUnits="userSpaceOnUse"
       id="mask4373">
      <g
         id="g4375">
        <rect
           y="-33.095146"
           x="-46.153847"
           height="409.23077"
           width="445.38461"
           id="rect4377"
           style="fill:#ffffff;fill-opacity:1;stroke:none" />
        <use
           x="0"
           y="0"
           xlink:href="#text3464"
           id="use4379"
           clip-path="url(#clipPath4309)"
           style="fill:#000000"
           width="100%"
           height="100%" />
      </g>
    </mask>
  </defs>
  <sodipodi:namedview
     pagecolor="#ffffff"
     bordercolor="#666666"
     borderopacity="1"
     objecttolerance="10"
     gridtolerance="10"
     guidetolerance="10"
     inkscape:pageopacity="0"
     inkscape:pageshadow="2"
     inkscape:window-width="1440"
     inkscape:window-height="772"
     id="namedview3356"
     showgrid="false"
     fit-margin-top="8"
     fit-margin-left="8"
     fit-margin-right="8"
     fit-margin-bottom="8"
     inkscape:zoom="1.3"
     inkscape:cx="64.366964"
     inkscape:cy="208.16218"
     inkscape:window-x="0"
     inkscape:window-y="0"
     inkscape:window-maximized="0"
     inkscape:current-layer="svg3350"
     showguides="false" />
  <g
     id="g4328"
     mask="url(#mask4373)">
    <text
       sodipodi:linespacing="125%"
       id="text3464"
       y="248.75101"
       x="83.951477"
       style="font-style:normal;font-weight:normal;font-size:120px;line-height:125%;font-family:sans-serif;letter-spacing:0px;word-spacing:0px;fill-opacity:1;stroke:none;stroke-width:1px;stroke-linecap:butt;stroke-linejoin:miter;stroke-opacity:1"
       xml:space="preserve"><tspan
         dx="0 -2"
         style="font-style:italic;font-variant:normal;font-weight:bold;font-stretch:normal;font-size:162.5px;font-family:Optima;-inkscape-font-specification:'Optima Bold Italic'"
         y="248.75101"
         x="83.951477"
         id="tspan3466"
         sodipodi:role="line">Py </tspan></text>
    <path
       sodipodi:nodetypes="cccccccccsccccccccccccccsscccccccccccccccccc"
       style="fill:#000000"
       inkscape:connector-curvature="0"
       id="path3354"
       d="m 179.23673,8.001 c -20.11015,-0.003 -36.63967,14.28 -36.63504,31.656 0,7.617 3.16287,14.64 8.42504,20.125 -12.48711,3.876 -22.03819,10.963 -31.13793,22.06 -15.11067,18.43 -27.412618,49.03 -40.97485,92.782 -11.87028,38.29 -28.174121,57.012 -40.108052,70.563 -11.931616,13.55 -18.808209,20.325 -18.805894,42.688 0.0023,3.5 2.28564,7.314 9.767492,12.03 7.479538,4.717 19.531512,9.383 34.608631,13.188 30.15308,7.612 72.263233,11.962 116.017893,11.97 22.43282,0.004 44.40274,-1.15 64.55339,-3.28 l 0,0.124 c 14.03788,-1.043 38.57465,-3.898 59.42084,-10.28 6.70647,-2.055 13.05418,-4.422 18.66123,-7.533 3.02283,-1.376 5.7251,-2.747 7.95634,-4.155 7.47375,-4.714 9.76518,-8.523 9.76518,-12.03 -0.005,-22.363 -6.86849,-29.135 -18.80589,-42.69 -11.93856,-13.553 -28.26092,-32.27 -40.14393,-70.56 -13.57728,-43.757 -25.85724,-74.35 -40.97486,-92.782 -9.51867,-11.607 -19.55234,-18.836 -32.91089,-22.594 4.9879,-5.41 7.99453,-12.24 7.99221,-19.626 C 215.90533,22.28 199.34689,8.003 179.23673,8 Z m 0,18.687 c 8.42273,0 15.04472,5.694 15.04472,12.97 0,7.272 -6.62199,12.97 -15.04472,12.968 -8.42272,-0.002 -15.00768,-5.696 -15.01,-12.97 0,-7.273 6.58843,-12.97 15.01,-12.968 z m 10.67018,43.22 c 40.0606,10.188 57.35508,64.686 67.26607,101.56 17.34771,64.56 52.83241,82.98 61.37086,111.25 -0.37843,0.633 -1.1596,1.286 -2.42335,2.408 -3.08417,2.74 -10.20263,6.216 -18.98643,8.906 -8.52457,2.61 -18.51657,4.614 -27.99243,6.124 -2.0021,-38.024 -39.07575,-53.55 -38.47975,-107.47 0.69784,-63.043 -19.89374,-103.352 -45.71279,-121.78 1.6989,-0.233 3.33993,-0.57 4.9555,-1 z M 54.718577,330.063 c 1.409574,12.736 13.822621,22.686 28.932144,22.688 10.903946,0 20.416839,-5.173 25.390849,-12.844 -18.50037,-2.11 -35.671019,-5.08 -50.705318,-8.875 -1.226722,-0.31 -2.418727,-0.65 -3.616517,-0.97 z" />
  </g>
</svg>
